<svg width="1584" height="396" viewBox="0 0 1584 396" fill="none" xmlns="http://www.w3.org/2000/svg">
<rect width="1584" height="396" fill="#F5F5F5"/>
<g id="Awesome banner" clip-path="url(#clip0_0_1)">
<rect width="1584" height="396" fill="url(#paint0_linear_0_1)"/>
<ellipse id="Ellipse 2" cx="323" cy="64" rx="285" ry="288" fill="url(#paint1_linear_0_1)" fill-opacity="0.1"/>
<g id="copyright">
<text fill="white" fill-opacity="0.9" style="white-space: pre" xml:space="preserve" font-family="JetBrains Mono" font-size="32" font-weight="100" letter-spacing="0em"><tspan x="127.562" y="334.52"> - COMMUNITY NODES</tspan></text>
<text fill="white" fill-opacity="0.9" style="white-space: pre" xml:space="preserve" font-family="JetBrains Mono" font-size="32" font-weight="bold" letter-spacing="0em"><tspan x="70" y="334.52">N8N</tspan></text>
</g>
<text id="placeholder-description" fill="white" fill-opacity="0.7" style="white-space: pre" xml:space="preserve" font-family="JetBrains Mono" font-size="24" letter-spacing="0em"><tspan x="70" y="197.64">Camelot DEX native Arbitrum decentralized</tspan><tspan x="70" y="229.64">exchange with concentrated liquidity and</tspan><tspan x="70" y="261.64">custom yield strategies</tspan></text>
<text id="placeholder-name" fill="url(#paint2_linear_0_1)" style="white-space: pre" xml:space="preserve" font-family="JetBrains Mono" font-size="96" font-weight="500" letter-spacing="0em"><tspan x="62" y="136.06">CAMELOT DEX</tspan></text>
<g id="Group 1">
<rect id="Rectangle 1" x="26" y="168" width="12" height="184" rx="5" fill="url(#paint3_linear_0_1)" fill-opacity="0.9"/>
</g>
<g id="Group 1_2">
<rect id="Rectangle 2" x="26" y="38" width="12" height="119" rx="5" fill="url(#paint4_linear_0_1)" fill-opacity="0.9"/>
</g>
<ellipse id="Ellipse 1" cx="148.5" cy="573" rx="215.5" ry="214" fill="url(#paint5_linear_0_1)" fill-opacity="0.4"/>
<rect id="Rectangle 3" x="1229" y="48" width="300" height="300" rx="25" fill="#FFFBFB" fill-opacity="0.9"/>
<g id="placeholder-logo"><g transform="translate(1229,48) translate(50.8,0.0) scale(0.6911)"><defs id="defs128">
    <style id="style126">
      .cls-1 { fill: #fff3d4; }
      .cls-1, .cls-2 { stroke-width: 0px; }
      .cls-2 { fill: #f58b00; }</style>
  </defs>
  <path class="cls-2" d="m 286.948,176.02 c -34.57,-19.26 -73.42,-31.77 -114.76,-35.75 v 80.96 l -28.69,12.33 -28.69,-12.33 V 199.4 c 0,0 0,-16.94 0,-16.94 v -42.19 c -41.34,3.99 -80.18,16.5 -114.76000028,35.75 0,0 -6.86000002,189.1 143.44000028,258.09 0,0 0.01,0 0.02,0 150.3,-68.98 143.44,-258.09 143.44,-258.09 z m -88.55,90.27 -31.17,13.39 -21.92,9.42 25.76,0.26 c 0.61,0 1.05,70.9 0.92,71.08 l -28.5,42.63 c 0,0 0,0 0,0 l -28.69,-42.91 c 0,0 0.5,-71.35 1.11,-71.35 l 25.67,0.26 -21.83,-9.38 -31.17,-13.39 -31.17,-13.39 31.17,-13.39 54.46,23.4 c 0.28,0.12 0.6,0.12 0.87,0 l 54.46,-23.4 31.17,13.39 -31.17,13.39 z" id="path130" />
  <path class="cls-1" d="m 229.568,279.68 -31.17,-13.39 -54.46,23.4 c -0.28,0.12 -0.6,0.12 -0.87,0 l -54.46,-23.4 -31.17,13.39 31.17,13.39 31.17,13.39 23.73,10.2 23.73,-10.2 31.17,-13.39 31.17,-13.39 z" id="path132" />
  <path class="cls-1" d="m 229.568,226.03 c 0,0 -31.88,-13.7 -57.38,-24.65 v 19.84 l -28.69,12.33 -28.69,-12.33 c 0,0 0,0 0,0 v -19.84 l -55.01,23.64 c -0.89,0.38 -0.89,1.65 0,2.04 l 28.8,12.37 54.46,23.4 c 0.28,0.12 0.6,0.12 0.87,0 l 54.46,-23.4 31.17,-13.39 z" id="path134" />
  <path class="cls-1" d="m 241.418,108.73 c -25.22,-7.58 -51.67,-12.32 -78.97,-13.85 l -6.52,-58.79 c -0.16,-1.48 0.31,-2.96 1.31,-4.06 3.12,-3.4 5.02,-7.93 5.02,-12.91 0,-10.56 -8.56,-19.12 -19.12,-19.12 -0.01,0 -0.02,0 -0.03,0 -0.02,0 -0.04,0 -0.07,0 -10.56,0 -19.12,8.56 -19.12,19.12 0,4.98 1.9,9.51 5.02,12.91 1.01,1.1 1.48,2.58 1.31,4.06 l -6.52,58.79 c -27.31,1.53 -53.75,6.26 -78.97,13.85 l 11.99,27.26 0.85,-0.27 c 26.94,-7.88 56.2,-11.81 85.47,-11.81 v 0 c 29.28,0 58.56,3.93 85.51,11.81 l 0.87,0.21 z" id="path136" /></g></g>
</g>
<defs>
<linearGradient id="paint0_linear_0_1" x1="0" y1="198" x2="1584" y2="198" gradientUnits="userSpaceOnUse">
<stop stop-color="#3D052C"/>
<stop offset="1"/>
</linearGradient>
<linearGradient id="paint1_linear_0_1" x1="323" y1="-224" x2="323" y2="352" gradientUnits="userSpaceOnUse">
<stop stop-color="#28F6F2" stop-opacity="0.4"/>
<stop offset="1" stop-color="#17908E" stop-opacity="0.7"/>
</linearGradient>
<linearGradient id="paint2_linear_0_1" x1="148.5" y1="38" x2="148.5" y2="140" gradientUnits="userSpaceOnUse">
<stop stop-color="white"/>
<stop offset="1" stop-color="#999999"/>
</linearGradient>
<linearGradient id="paint3_linear_0_1" x1="38" y1="260" x2="26" y2="260" gradientUnits="userSpaceOnUse">
<stop stop-color="#D9D9D9"/>
<stop offset="1" stop-color="#737373"/>
</linearGradient>
<linearGradient id="paint4_linear_0_1" x1="38" y1="97.5" x2="26" y2="97.5" gradientUnits="userSpaceOnUse">
<stop stop-color="#D9D9D9"/>
<stop offset="1" stop-color="#737373"/>
</linearGradient>
<linearGradient id="paint5_linear_0_1" x1="27.5" y1="434.5" x2="148.5" y2="787" gradientUnits="userSpaceOnUse">
<stop stop-color="#2E21BC"/>
<stop offset="1" stop-color="#150F56"/>
</linearGradient>
<clipPath id="clip0_0_1">
<rect width="1584" height="396" fill="white"/>
</clipPath>
</defs>
</svg>
