<svg width="1584" height="396" viewBox="0 0 1584 396" fill="none" xmlns="http://www.w3.org/2000/svg">
<rect width="1584" height="396" fill="#F5F5F5"/>
<g id="Awesome banner" clip-path="url(#clip0_0_1)">
<rect width="1584" height="396" fill="url(#paint0_linear_0_1)"/>
<ellipse id="Ellipse 2" cx="323" cy="64" rx="285" ry="288" fill="url(#paint1_linear_0_1)" fill-opacity="0.1"/>
<g id="copyright">
<path d="M75.95 334.52L72.30 334.52L72.30 311.16L77.20 311.16L83.70 330.04Q83.60 329.02 83.50 327.62Q83.41 326.23 83.33 324.79Q83.25 323.35 83.25 322.23L83.25 311.16L86.90 311.16L86.90 334.52L82 334.52L75.57 315.64Q75.63 316.57 75.73 317.88Q75.82 319.19 75.89 320.57Q75.95 321.94 75.95 323.10L75.95 334.52M98.80 334.84Q96.46 334.84 94.67 333.96Q92.88 333.08 91.89 331.53Q90.90 329.98 90.90 327.93Q90.90 325.78 92.13 324.18Q93.36 322.58 95.34 322.17L95.34 322.10Q93.65 321.75 92.61 320.38Q91.57 319 91.57 317.11Q91.57 315.26 92.48 313.85Q93.39 312.44 95.02 311.64Q96.66 310.84 98.80 310.84Q100.94 310.84 102.59 311.64Q104.24 312.44 105.15 313.85Q106.06 315.26 106.06 317.11Q106.06 319 105.01 320.38Q103.95 321.75 102.26 322.10L102.26 322.17Q104.24 322.58 105.47 324.18Q106.70 325.78 106.70 327.93Q106.70 329.98 105.71 331.53Q104.72 333.08 102.93 333.96Q101.14 334.84 98.80 334.84M98.80 320.73Q100.30 320.73 101.23 319.82Q102.16 318.90 102.16 317.46Q102.16 315.99 101.23 315.08Q100.30 314.17 98.80 314.17Q97.30 314.17 96.37 315.08Q95.44 315.99 95.44 317.46Q95.44 318.90 96.37 319.82Q97.30 320.73 98.80 320.73M98.80 331.45Q100.56 331.45 101.68 330.42Q102.80 329.40 102.80 327.74Q102.80 326.04 101.68 325Q100.56 323.96 98.80 323.96Q97.04 323.96 95.92 325Q94.80 326.04 94.80 327.74Q94.80 329.40 95.92 330.42Q97.04 331.45 98.80 331.45M114.35 334.52L110.70 334.52L110.70 311.16L115.60 311.16L122.10 330.04Q122 329.02 121.90 327.62Q121.81 326.23 121.73 324.79Q121.65 323.35 121.65 322.23L121.65 311.16L125.30 311.16L125.30 334.52L120.40 334.52L113.97 315.64Q114.03 316.57 114.13 317.88Q114.22 319.19 114.29 320.57Q114.35 321.94 114.35 323.10" fill="white" fill-opacity="0.9"/>
<path d="M161.48 325.24L151.24 325.24L151.24 322.68L161.48 322.68" fill="white" fill-opacity="0.9"/>
<path d="M195.02 334.84Q191.82 334.84 189.96 333.05Q188.11 331.26 188.11 328.12L188.11 317.56Q188.11 314.42 189.96 312.63Q191.82 310.84 195.02 310.84Q198.15 310.84 200.01 312.65Q201.87 314.46 201.87 317.56L198.99 317.56Q198.99 315.58 197.95 314.50Q196.91 313.43 195.02 313.43Q193.13 313.43 192.06 314.50Q190.99 315.58 190.99 317.56L190.99 328.12Q190.99 330.10 192.06 331.18Q193.13 332.25 195.02 332.25Q196.91 332.25 197.95 331.18Q198.99 330.10 198.99 328.12L201.87 328.12Q201.87 331.22 200.01 333.03Q198.15 334.84 195.02 334.84" fill="white" fill-opacity="0.9"/>
<path d="M213.96 334.84Q210.83 334.84 209 333.02Q207.18 331.19 207.18 327.80L207.18 317.88Q207.18 314.49 209 312.66Q210.83 310.84 213.96 310.84Q217.10 310.84 218.92 312.66Q220.75 314.49 220.75 317.85L220.75 327.80Q220.75 331.19 218.92 333.02Q217.10 334.84 213.96 334.84M213.96 332.25Q215.85 332.25 216.86 331.18Q217.87 330.10 217.87 328.12L217.87 317.56Q217.87 315.58 216.86 314.50Q215.85 313.43 213.96 313.43Q212.11 313.43 211.08 314.50Q210.06 315.58 210.06 317.56L210.06 328.12Q210.06 330.10 211.08 331.18Q212.11 332.25 213.96 332.25" fill="white" fill-opacity="0.9"/>
<path d="M228.65 334.52L225.87 334.52L225.87 311.16L230.12 311.16L233.10 321.27L236.20 311.16L240.46 311.16L240.46 334.52L237.67 334.52L237.67 323.48Q237.67 321.91 237.72 319.88Q237.77 317.85 237.87 315.77Q237.96 313.69 238.09 312.02L234.31 324.09L231.82 324.09L228.20 312.31Q228.46 314.68 228.55 317.50Q228.65 320.31 228.65 323.48" fill="white" fill-opacity="0.9"/>
<path d="M247.85 334.52L245.07 334.52L245.07 311.16L249.32 311.16L252.30 321.27L255.40 311.16L259.66 311.16L259.66 334.52L256.87 334.52L256.87 323.48Q256.87 321.91 256.92 319.88Q256.97 317.85 257.07 315.77Q257.16 313.69 257.29 312.02L253.51 324.09L251.02 324.09L247.40 312.31Q247.66 314.68 247.75 317.50Q247.85 320.31 247.85 323.48" fill="white" fill-opacity="0.9"/>
<path d="M271.56 334.84Q268.30 334.84 266.57 333.03Q264.84 331.22 264.84 328.12L264.84 311.16L267.72 311.16L267.72 328.12Q267.72 330.04 268.67 331.16Q269.61 332.28 271.56 332.28Q273.48 332.28 274.44 331.16Q275.40 330.04 275.40 328.12L275.40 311.16L278.28 311.16L278.28 328.12Q278.28 331.26 276.57 333.05Q274.86 334.84 271.56 334.84" fill="white" fill-opacity="0.9"/>
<path d="M286.83 334.52L284.04 334.52L284.04 311.16L287.88 311.16L295.02 331.16Q294.95 330.36 294.87 329.19Q294.79 328.02 294.75 326.73Q294.70 325.43 294.70 324.28L294.70 311.16L297.48 311.16L297.48 334.52L293.64 334.52L286.54 314.52Q286.60 315.29 286.67 316.46Q286.73 317.62 286.78 318.92Q286.83 320.22 286.83 321.40" fill="white" fill-opacity="0.9"/>
<path d="M316.20 334.52L303.72 334.52L303.72 331.90L308.49 331.90L308.49 313.78L303.72 313.78L303.72 311.16L316.20 311.16L316.20 313.78L311.43 313.78L311.43 331.90L316.20 331.90" fill="white" fill-opacity="0.9"/>
<path d="M330.60 334.52L327.72 334.52L327.72 313.78L321.32 313.78L321.32 311.16L337 311.16L337 313.78L330.60 313.78" fill="white" fill-opacity="0.9"/>
<path d="M349.80 334.52L346.92 334.52L346.92 325.78L339.88 311.16L342.95 311.16L347.50 320.76Q347.88 321.56 348.11 322.12Q348.33 322.68 348.39 322.94Q348.46 322.68 348.70 322.12Q348.94 321.56 349.32 320.76L353.87 311.16L356.84 311.16L349.80 325.78" fill="white" fill-opacity="0.9"/>
<path d="M382.83 334.52L380.04 334.52L380.04 311.16L383.88 311.16L391.02 331.16Q390.95 330.36 390.87 329.19Q390.79 328.02 390.75 326.73Q390.70 325.43 390.70 324.28L390.70 311.16L393.48 311.16L393.48 334.52L389.64 334.52L382.54 314.52Q382.60 315.29 382.67 316.46Q382.73 317.62 382.78 318.92Q382.83 320.22 382.83 321.40" fill="white" fill-opacity="0.9"/>
<path d="M405.96 334.84Q402.83 334.84 401 333.02Q399.18 331.19 399.18 327.80L399.18 317.88Q399.18 314.49 401 312.66Q402.83 310.84 405.96 310.84Q409.10 310.84 410.92 312.66Q412.75 314.49 412.75 317.85L412.75 327.80Q412.75 331.19 410.92 333.02Q409.10 334.84 405.96 334.84M405.96 332.25Q407.85 332.25 408.86 331.18Q409.87 330.10 409.87 328.12L409.87 317.56Q409.87 315.58 408.86 314.50Q407.85 313.43 405.96 313.43Q404.11 313.43 403.08 314.50Q402.06 315.58 402.06 317.56L402.06 328.12Q402.06 330.10 403.08 331.18Q404.11 332.25 405.96 332.25" fill="white" fill-opacity="0.9"/>
<path d="M424.55 334.52L418.51 334.52L418.51 311.16L424.55 311.16Q426.83 311.16 428.47 312.02Q430.12 312.89 431.03 314.46Q431.95 316.02 431.95 318.17L431.95 327.48Q431.95 329.62 431.03 331.21Q430.12 332.79 428.47 333.66Q426.83 334.52 424.55 334.52M421.39 313.72L421.39 331.96L424.55 331.96Q426.67 331.96 427.87 330.78Q429.07 329.59 429.07 327.48L429.07 318.17Q429.07 316.09 427.87 314.90Q426.67 313.72 424.55 313.72" fill="white" fill-opacity="0.9"/>
<path d="M451.40 334.52L437.96 334.52L437.96 311.16L451.40 311.16L451.40 313.78L440.81 313.78L440.81 321.02L450.28 321.02L450.28 323.58L440.81 323.58L440.81 331.90L451.40 331.90" fill="white" fill-opacity="0.9"/>
<path d="M463.69 334.84Q460.30 334.84 458.28 333.05Q456.27 331.26 456.27 328.12L459.15 328.12Q459.15 330.07 460.39 331.18Q461.64 332.28 463.69 332.28Q465.67 332.28 466.86 331.13Q468.04 329.98 468.04 328.12Q468.04 326.71 467.29 325.67Q466.54 324.63 465.13 324.25L461.58 323.26Q459.37 322.62 458.11 320.97Q456.84 319.32 456.84 317.08Q456.84 315.22 457.67 313.82Q458.51 312.41 460.01 311.62Q461.51 310.84 463.47 310.84Q465.45 310.84 466.97 311.62Q468.49 312.41 469.35 313.80Q470.22 315.19 470.22 317.02L467.34 317.02Q467.34 315.42 466.25 314.41Q465.16 313.40 463.47 313.40Q461.77 313.40 460.71 314.41Q459.66 315.42 459.66 317.02Q459.66 318.30 460.35 319.21Q461.03 320.12 462.28 320.47L465.93 321.50Q468.27 322.14 469.56 323.91Q470.86 325.69 470.86 328.12Q470.86 331.19 468.91 333.02Q466.95 334.84 463.69 334.84" fill="white" fill-opacity="0.9"/>
</g>
<path d="M77.39 197.88Q74.99 197.88 73.60 196.54Q72.21 195.19 72.21 192.84L72.21 184.92Q72.21 182.57 73.60 181.22Q74.99 179.88 77.39 179.88Q79.74 179.88 81.14 181.24Q82.53 182.59 82.53 184.92L80.37 184.92Q80.37 183.43 79.59 182.63Q78.81 181.82 77.39 181.82Q75.98 181.82 75.17 182.63Q74.37 183.43 74.37 184.92L74.37 192.84Q74.37 194.33 75.17 195.13Q75.98 195.94 77.39 195.94Q78.81 195.94 79.59 195.13Q80.37 194.33 80.37 192.84L82.53 192.84Q82.53 195.17 81.14 196.52Q79.74 197.88 77.39 197.88" fill="white" fill-opacity="0.7"/>
<path d="M90.45 197.88Q88.41 197.88 87.21 196.74Q86.01 195.60 86.01 193.75Q86.01 192.53 86.56 191.62Q87.11 190.70 88.10 190.19Q89.08 189.67 90.35 189.67L94.43 189.67L94.43 188.64Q94.43 186.07 91.62 186.07Q90.38 186.07 89.61 186.53Q88.84 186.98 88.79 187.80L86.63 187.80Q86.75 186.24 88.08 185.22Q89.42 184.20 91.62 184.20Q94.02 184.20 95.31 185.35Q96.59 186.50 96.59 188.57L96.59 197.64L94.46 197.64L94.46 195.24L94.41 195.24Q94.22 196.46 93.18 197.17Q92.15 197.88 90.45 197.88M90.98 196.06Q92.56 196.06 93.50 195.29Q94.43 194.52 94.43 193.20L94.43 191.35L90.59 191.35Q89.54 191.35 88.88 191.99Q88.22 192.62 88.22 193.68Q88.22 194.78 88.95 195.42Q89.68 196.06 90.98 196.06" fill="white" fill-opacity="0.7"/>
<path d="M102.26 197.64L100.24 197.64L100.24 184.44L102.11 184.44L102.11 186.19L102.16 186.19Q102.28 185.30 102.87 184.75Q103.46 184.20 104.37 184.20Q105.23 184.20 105.83 184.70Q106.43 185.21 106.70 186.07L106.72 186.07Q106.89 185.21 107.48 184.70Q108.06 184.20 108.98 184.20Q110.25 184.20 111 185.15Q111.76 186.10 111.76 187.61L111.76 197.64L109.74 197.64L109.74 187.58Q109.74 186.79 109.36 186.32Q108.98 185.86 108.30 185.86Q107.66 185.86 107.27 186.31Q106.89 186.77 106.89 187.56L106.89 197.64L105.11 197.64L105.11 187.58Q105.11 186.79 104.73 186.32Q104.34 185.86 103.70 185.86Q103.02 185.86 102.64 186.31Q102.26 186.77 102.26 187.56" fill="white" fill-opacity="0.7"/>
<path d="M120.40 197.88Q118.07 197.88 116.64 196.48Q115.22 195.07 115.22 192.60L115.22 189.48Q115.22 187.01 116.64 185.60Q118.07 184.20 120.40 184.20Q121.96 184.20 123.12 184.82Q124.29 185.45 124.94 186.58Q125.58 187.70 125.58 189.24L125.58 191.59L117.33 191.59L117.33 192.84Q117.33 194.30 118.17 195.16Q119.01 196.01 120.40 196.01Q121.60 196.01 122.38 195.54Q123.16 195.07 123.33 194.28L125.49 194.28Q125.27 195.94 123.88 196.91Q122.49 197.88 120.40 197.88M117.33 189.24L117.33 189.91L123.47 189.91L123.47 189.24Q123.47 187.68 122.67 186.83Q121.86 185.98 120.40 185.98Q118.94 185.98 118.13 186.83Q117.33 187.68 117.33 189.24" fill="white" fill-opacity="0.7"/>
<path d="M140.80 197.64L136.72 197.64Q134.97 197.64 133.92 196.62Q132.88 195.60 132.88 193.92L132.88 182.09L128.32 182.09L128.32 180.12L135.04 180.12L135.04 193.92Q135.04 194.74 135.50 195.20Q135.95 195.67 136.72 195.67L140.80 195.67" fill="white" fill-opacity="0.7"/>
<path d="M149.20 197.83Q146.82 197.83 145.42 196.44Q144.02 195.05 144.02 192.55L144.02 189.53Q144.02 187.01 145.41 185.63Q146.80 184.25 149.20 184.25Q151.60 184.25 152.99 185.63Q154.38 187.01 154.38 189.53L154.38 192.55Q154.38 195.05 152.98 196.44Q151.58 197.83 149.20 197.83M149.20 195.91Q150.62 195.91 151.42 195.12Q152.22 194.33 152.22 192.79L152.22 189.29Q152.22 187.75 151.42 186.96Q150.62 186.17 149.20 186.17Q147.81 186.17 146.99 186.96Q146.18 187.75 146.18 189.29L146.18 192.79Q146.18 194.33 146.99 195.12Q147.81 195.91 149.20 195.91" fill="white" fill-opacity="0.7"/>
<path d="M168.76 197.64L164.92 197.64Q163.29 197.64 162.30 196.69Q161.32 195.74 161.32 194.16L161.32 186.41L157.53 186.41L157.53 184.44L161.32 184.44L161.32 180.72L163.48 180.72L163.48 184.44L168.88 184.44L168.88 186.41L163.48 186.41L163.48 194.16Q163.48 194.83 163.88 195.25Q164.27 195.67 164.92 195.67L168.76 195.67" fill="white" fill-opacity="0.7"/>
<path d="M191.94 197.64L187.41 197.64L187.41 180.12L191.94 180.12Q193.65 180.12 194.88 180.77Q196.12 181.42 196.80 182.59Q197.49 183.77 197.49 185.38L197.49 192.36Q197.49 193.97 196.80 195.16Q196.12 196.34 194.88 196.99Q193.65 197.64 191.94 197.64M189.57 182.04L189.57 195.72L191.94 195.72Q193.53 195.72 194.43 194.83Q195.33 193.94 195.33 192.36L195.33 185.38Q195.33 183.82 194.43 182.93Q193.53 182.04 191.94 182.04" fill="white" fill-opacity="0.7"/>
<path d="M212.08 197.64LNaN 197.64LNaN 180.12L212.08 180.12L212.08 182.09L204.14 182.09L204.14 187.51L211.24 187.51L211.24 189.43L204.14 189.43L204.14 195.67L212.08 195.67" fill="white" fill-opacity="0.7"/>
<path d="M217.36 197.64L214.96 197.64LNaN 188.76L215.22 180.12L217.72 180.12L220.43 185.30Q220.65 185.71 220.88 186.18Q221.10 186.65 221.25 186.91Q221.37 186.65 221.60 186.18Q221.82 185.71 222.04 185.30L224.80 180.12L227.18 180.12L222.40 188.62L227.44 197.64L224.97 197.64L221.97 192.07Q221.75 191.66 221.52 191.20Q221.30 190.73 221.18 190.44Q221.06 190.73 220.83 191.18Q220.60 191.64 220.38 192.05" fill="white" fill-opacity="0.7"/>
<path d="M235.60 187.75Q234.62 187.75 234.11 187.27Q233.61 186.79 233.61 185.98Q233.61 185.16 234.11 184.68Q234.62 184.20 235.60 184.20Q236.58 184.20 237.09 184.68Q237.59 185.16 237.59 185.98Q237.59 186.79 237.09 187.27Q236.58 187.75 235.60 187.75M235.60 197.88Q234.62 197.88 234.11 197.40Q233.61 196.92 233.61 196.10Q233.61 195.29 234.11 194.81Q234.62 194.33 235.60 194.33Q236.58 194.33 237.09 194.81Q237.59 195.29 237.59 196.10Q237.59 196.92 237.09 197.40Q236.58 197.88 235.60 197.88" fill="white" fill-opacity="0.7"/>
<path d="M260.61 197.64L258.40 197.64L262.96 180.12L265.86 180.12L270.40 197.64L268.22 197.64L267.06 192.98L261.76 192.98L260.61 197.64M263.54 185.74L262.19 191.16L266.61 191.16L265.26 185.76Q264.88 184.22 264.66 183.19Q264.45 182.16 264.40 181.85Q264.35 182.16 264.14 183.19Q263.92 184.22 263.54 185.74" fill="white" fill-opacity="0.7"/>
<path d="M276.45 197.64L274.29 197.64L274.29 184.44L276.45 184.44L276.45 186.96L276.50 186.96Q276.66 185.69 277.58 184.94Q278.49 184.20 280.02 184.20Q282.09 184.20 283.20 185.44Q284.32 186.67 284.32 188.95L284.32 190.08L282.16 190.08L282.16 188.95Q282.16 186.07 279.35 186.07Q277.94 186.07 277.19 186.89Q276.45 187.70 276.45 189.24" fill="white" fill-opacity="0.7"/>
<path d="M293.97 197.88Q292.48 197.88 291.52 197.15Q290.56 196.42 290.39 195.12L290.37 195.12L290.37 197.64L288.21 197.64L288.21 180.12L290.37 180.12L290.37 183.96L290.32 186.96L290.34 186.96Q290.54 185.69 291.51 184.94Q292.48 184.20 293.97 184.20Q295.96 184.20 297.14 185.52Q298.31 186.84 298.31 189.12L298.31 192.98Q298.31 195.24 297.14 196.56Q295.96 197.88 293.97 197.88M293.25 196.01Q294.62 196.01 295.38 195.29Q296.15 194.57 296.15 192.96L296.15 189.12Q296.15 187.49 295.38 186.78Q294.62 186.07 293.25 186.07Q291.93 186.07 291.15 186.91Q290.37 187.75 290.37 189.24L290.37 192.84Q290.37 194.33 291.15 195.17Q291.93 196.01 293.25 196.01" fill="white" fill-opacity="0.7"/>
<path d="M313.72 197.64L302.44 197.64L302.44 195.67L307.12 195.67L307.12 186.41L302.92 186.41L302.92 184.44L309.28 184.44L309.28 195.67L313.72 195.67L313.72 197.64M307.96 182.06Q307.17 182.06 306.71 181.66Q306.26 181.25 306.26 180.55Q306.26 179.83 306.71 179.41Q307.17 178.99 307.96 178.99Q308.75 178.99 309.21 179.41Q309.66 179.83 309.66 180.55Q309.66 181.25 309.21 181.66Q308.75 182.06 307.96 182.06" fill="white" fill-opacity="0.7"/>
<path d="M327.16 197.64L323.32 197.64Q321.69 197.64 320.70 196.69Q319.72 195.74 319.72 194.16L319.72 186.41L315.93 186.41L315.93 184.44L319.72 184.44L319.72 180.72L321.88 180.72L321.88 184.44L327.28 184.44L327.28 186.41L321.88 186.41L321.88 194.16Q321.88 194.83 322.28 195.25Q322.67 195.67 323.32 195.67L327.16 195.67" fill="white" fill-opacity="0.7"/>
<path d="M334.05 197.64L331.89 197.64L331.89 184.44L334.05 184.44L334.05 186.96L334.10 186.96Q334.26 185.69 335.18 184.94Q336.09 184.20 337.62 184.20Q339.69 184.20 340.80 185.44Q341.92 186.67 341.92 188.95L341.92 190.08L339.76 190.08L339.76 188.95Q339.76 186.07 336.95 186.07Q335.54 186.07 334.79 186.89Q334.05 187.70 334.05 189.24" fill="white" fill-opacity="0.7"/>
<path d="M350.78 197.88Q348.50 197.88 347.13 196.52Q345.76 195.17 345.76 192.84L345.76 184.44L347.92 184.44L347.92 192.84Q347.92 194.28 348.69 195.13Q349.46 195.98 350.78 195.98Q352.12 195.98 352.90 195.13Q353.68 194.28 353.68 192.84L353.68 184.44L355.84 184.44L355.84 192.84Q355.84 195.17 354.45 196.52Q353.06 197.88 350.78 197.88" fill="white" fill-opacity="0.7"/>
<path d="M361.46 197.64L359.44 197.64L359.44 184.44L361.31 184.44L361.31 186.19L361.36 186.19Q361.48 185.30 362.07 184.75Q362.66 184.20 363.57 184.20Q364.43 184.20 365.03 184.70Q365.63 185.21 365.90 186.07L365.92 186.07Q366.09 185.21 366.68 184.70Q367.26 184.20 368.18 184.20Q369.45 184.20 370.20 185.15Q370.96 186.10 370.96 187.61L370.96 197.64L368.94 197.64L368.94 187.58Q368.94 186.79 368.56 186.32Q368.18 185.86 367.50 185.86Q366.86 185.86 366.47 186.31Q366.09 186.77 366.09 187.56L366.09 197.64L364.31 197.64L364.31 187.58Q364.31 186.79 363.93 186.32Q363.54 185.86 362.90 185.86Q362.22 185.86 361.84 186.31Q361.46 186.77 361.46 187.56" fill="white" fill-opacity="0.7"/>
<path d="M393.54 197.64L389.01 197.64L389.01 180.12L393.54 180.12Q395.25 180.12 396.48 180.77Q397.72 181.42 398.40 182.59Q399.09 183.77 399.09 185.38L399.09 192.36Q399.09 193.97 398.40 195.16Q397.72 196.34 396.48 196.99Q395.25 197.64 393.54 197.64M391.17 182.04L391.17 195.72L393.54 195.72Q395.13 195.72 396.03 194.83Q396.93 193.94 396.93 192.36L396.93 185.38Q396.93 183.82 396.03 182.93Q395.13 182.04 393.54 182.04" fill="white" fill-opacity="0.7"/>
<path d="M413.68 197.64L403.60 197.64L403.60 180.12L413.68 180.12L413.68 182.09L405.74 182.09L405.74 187.51L412.84 187.51L412.84 189.43L405.74 189.43L405.74 195.67L413.68 195.67" fill="white" fill-opacity="0.7"/>
<path d="M418.96 197.64L416.56 197.64L421.60 188.76L416.82 180.12L419.32 180.12L422.03 185.30Q422.25 185.71 422.48 186.18Q422.70 186.65 422.85 186.91Q422.97 186.65 423.20 186.18Q423.42 185.71 423.64 185.30L426.40 180.12L428.78 180.12L424 188.62L429.04 197.64L426.57 197.64L423.57 192.07Q423.35 191.66 423.12 191.20Q422.90 190.73 422.78 190.44Q422.66 190.73 422.43 191.18Q422.20 191.64 421.98 192.05" fill="white" fill-opacity="0.7"/>
<path d="M449.68 197.64L447.30 197.64L445.14 184.44L447.02 184.44L448.36 193.75Q448.43 194.28 448.50 194.92Q448.58 195.55 448.60 195.96Q448.65 195.55 448.71 194.92Q448.77 194.28 448.86 193.75L450.52 184.44L452.68 184.44L454.34 193.75Q454.43 194.28 454.52 194.92Q454.60 195.55 454.62 195.96Q454.67 195.55 454.74 194.92Q454.82 194.28 454.89 193.75L456.28 184.44L458.06 184.44L455.80 197.64L453.42 197.64L451.91 188.52Q451.82 187.85 451.73 187.09Q451.65 186.34 451.60 185.93Q451.58 186.34 451.48 187.09Q451.38 187.85 451.26 188.52" fill="white" fill-opacity="0.7"/>
<path d="M472.12 197.64L460.84 197.64L460.84 195.67L465.52 195.67L465.52 186.41L461.32 186.41L461.32 184.44L467.68 184.44L467.68 195.67L472.12 195.67L472.12 197.64M466.36 182.06Q465.57 182.06 465.11 181.66Q464.66 181.25 464.66 180.55Q464.66 179.83 465.11 179.41Q465.57 178.99 466.36 178.99Q467.15 178.99 467.61 179.41Q468.06 179.83 468.06 180.55Q468.06 181.25 467.61 181.66Q467.15 182.06 466.36 182.06" fill="white" fill-opacity="0.7"/>
<path d="M485.56 197.64L481.72 197.64Q480.09 197.64 479.10 196.69Q478.12 195.74 478.12 194.16L478.12 186.41L474.33 186.41L474.33 184.44L478.12 184.44L478.12 180.72L480.28 180.72L480.28 184.44L485.68 184.44L485.68 186.41L480.28 186.41L480.28 194.16Q480.28 194.83 480.68 195.25Q481.07 195.67 481.72 195.67L485.56 195.67" fill="white" fill-opacity="0.7"/>
<path d="M491.97 197.64L489.81 197.64L489.81 180.12L491.97 180.12L491.97 186.96L491.99 186.96Q492.16 185.64 493.07 184.92Q493.98 184.20 495.50 184.20Q497.49 184.20 498.66 185.42Q499.84 186.65 499.84 188.76L499.84 197.64L497.68 197.64L497.68 189.12Q497.68 187.63 496.92 186.83Q496.17 186.02 494.87 186.02Q493.53 186.02 492.75 186.86Q491.97 187.70 491.97 189.24" fill="white" fill-opacity="0.7"/>
<path d="M523.79 197.88Q521.39 197.88 519.95 196.54Q518.51 195.19 518.51 192.84L518.51 189.24Q518.51 186.89 519.95 185.54Q521.39 184.20 523.79 184.20Q526.07 184.20 527.48 185.42Q528.88 186.65 528.95 188.76L526.79 188.76Q526.72 187.49 525.93 186.80Q525.14 186.12 523.79 186.12Q522.38 186.12 521.52 186.92Q520.67 187.73 520.67 189.22L520.67 192.84Q520.67 194.33 521.52 195.14Q522.38 195.96 523.79 195.96Q525.14 195.96 525.93 195.26Q526.72 194.57 526.79 193.32L528.95 193.32Q528.88 195.43 527.48 196.66Q526.07 197.88 523.79 197.88" fill="white" fill-opacity="0.7"/>
<path d="M538 197.83Q535.62 197.83 534.22 196.44Q532.82 195.05 532.82 192.55L532.82 189.53Q532.82 187.01 534.21 185.63Q535.60 184.25 538 184.25Q540.40 184.25 541.79 185.63Q543.18 187.01 543.18 189.53L543.18 192.55Q543.18 195.05 541.78 196.44Q540.38 197.83 538 197.83M538 195.91Q539.42 195.91 540.22 195.12Q541.02 194.33 541.02 192.79L541.02 189.29Q541.02 187.75 540.22 186.96Q539.42 186.17 538 186.17Q536.61 186.17 535.79 186.96Q534.98 187.75 534.98 189.29L534.98 192.79Q534.98 194.33 535.79 195.12Q536.61 195.91 538 195.91" fill="white" fill-opacity="0.7"/>
<path d="M549.57 197.64L547.41 197.64L547.41 184.44L549.57 184.44L549.57 186.96L549.59 186.96Q549.76 185.64 550.67 184.92Q551.58 184.20 553.10 184.20Q555.09 184.20 556.26 185.42Q557.44 186.65 557.44 188.76L557.44 197.64L555.28 197.64L555.28 189.14Q555.28 187.63 554.52 186.83Q553.77 186.02 552.47 186.02Q551.13 186.02 550.35 186.86Q549.57 187.70 549.57 189.24" fill="white" fill-opacity="0.7"/>
<path d="M566.99 197.88Q564.59 197.88 563.15 196.54Q561.71 195.19 561.71 192.84L561.71 189.24Q561.71 186.89 563.15 185.54Q564.59 184.20 566.99 184.20Q569.27 184.20 570.68 185.42Q572.08 186.65 572.15 188.76L569.99 188.76Q569.92 187.49 569.13 186.80Q568.34 186.12 566.99 186.12Q565.58 186.12 564.72 186.92Q563.87 187.73 563.87 189.22L563.87 192.84Q563.87 194.33 564.72 195.14Q565.58 195.96 566.99 195.96Q568.34 195.96 569.13 195.26Q569.92 194.57 569.99 193.32L572.15 193.32Q572.08 195.43 570.68 196.66Q569.27 197.88 566.99 197.88" fill="white" fill-opacity="0.7"/>
<path d="M581.20 197.88Q578.87 197.88 577.44 196.48Q576.02 195.07 576.02 192.60L576.02 189.48Q576.02 187.01 577.44 185.60Q578.87 184.20 581.20 184.20Q582.76 184.20 583.92 184.82Q585.09 185.45 585.74 186.58Q586.38 187.70 586.38 189.24L586.38 191.59L578.13 191.59L578.13 192.84Q578.13 194.30 578.97 195.16Q579.81 196.01 581.20 196.01Q582.40 196.01 583.18 195.54Q583.96 195.07 584.13 194.28L586.29 194.28Q586.07 195.94 584.68 196.91Q583.29 197.88 581.20 197.88M578.13 189.24L578.13 189.91L584.27 189.91L584.27 189.24Q584.27 187.68 583.47 186.83Q582.66 185.98 581.20 185.98Q579.74 185.98 578.93 186.83Q578.13 187.68 578.13 189.24" fill="white" fill-opacity="0.7"/>
<path d="M592.77 197.64L590.61 197.64L590.61 184.44L592.77 184.44L592.77 186.96L592.79 186.96Q592.96 185.64 593.87 184.92Q594.78 184.20 596.30 184.20Q598.29 184.20 599.46 185.42Q600.64 186.65 600.64 188.76L600.64 197.64L598.48 197.64L598.48 189.14Q598.48 187.63 597.72 186.83Q596.97 186.02 595.67 186.02Q594.33 186.02 593.55 186.86Q592.77 187.70 592.77 189.24" fill="white" fill-opacity="0.7"/>
<path d="M615.16 197.64L611.32 197.64Q609.69 197.64 608.70 196.69Q607.72 195.74 607.72 194.16L607.72 186.41L603.93 186.41L603.93 184.44L607.72 184.44L607.72 180.72L609.88 180.72L609.88 184.44L615.28 184.44L615.28 186.41L609.88 186.41L609.88 194.16Q609.88 194.83 610.28 195.25Q610.67 195.67 611.32 195.67L615.16 195.67" fill="white" fill-opacity="0.7"/>
<path d="M622.05 197.64L619.89 197.64L619.89 184.44L622.05 184.44L622.05 186.96L622.10 186.96Q622.26 185.69 623.18 184.94Q624.09 184.20 625.62 184.20Q627.69 184.20 628.80 185.44Q629.92 186.67 629.92 188.95L629.92 190.08L627.76 190.08L627.76 188.95Q627.76 186.07 624.95 186.07Q623.54 186.07 622.79 186.89Q622.05 187.70 622.05 189.24" fill="white" fill-opacity="0.7"/>
<path d="M637.65 197.88Q635.61 197.88 634.41 196.74Q633.21 195.60 633.21 193.75Q633.21 192.53 633.76 191.62Q634.31 190.70 635.30 190.19Q636.28 189.67 637.55 189.67L641.63 189.67L641.63 188.64Q641.63 186.07 638.82 186.07Q637.58 186.07 636.81 186.53Q636.04 186.98 635.99 187.80L633.83 187.80Q633.95 186.24 635.28 185.22Q636.62 184.20 638.82 184.20Q641.22 184.20 642.51 185.35Q643.79 186.50 643.79 188.57L643.79 197.64L641.66 197.64L641.66 195.24L641.61 195.24Q641.42 196.46 640.38 197.17Q639.35 197.88 637.65 197.88M638.18 196.06Q639.76 196.06 640.70 195.29Q641.63 194.52 641.63 193.20L641.63 191.35L637.79 191.35Q636.74 191.35 636.08 191.99Q635.42 192.62 635.42 193.68Q635.42 194.78 636.15 195.42Q636.88 196.06 638.18 196.06" fill="white" fill-opacity="0.7"/>
<path d="M658.36 197.64L654.52 197.64Q652.89 197.64 651.90 196.69Q650.92 195.74 650.92 194.16L650.92 186.41L647.13 186.41L647.13 184.44L650.92 184.44L650.92 180.72L653.08 180.72L653.08 184.44L658.48 184.44L658.48 186.41L653.08 186.41L653.08 194.16Q653.08 194.83 653.48 195.25Q653.87 195.67 654.52 195.67L658.36 195.67" fill="white" fill-opacity="0.7"/>
<path d="M667.60 197.88Q665.27 197.88 663.84 196.48Q662.42 195.07 662.42 192.60L662.42 189.48Q662.42 187.01 663.84 185.60Q665.27 184.20 667.60 184.20Q669.16 184.20 670.32 184.82Q671.49 185.45 672.14 186.58Q672.78 187.70 672.78 189.24L672.78 191.59L664.53 191.59L664.53 192.84Q664.53 194.30 665.37 195.16Q666.21 196.01 667.60 196.01Q668.80 196.01 669.58 195.54Q670.36 195.07 670.53 194.28L672.69 194.28Q672.47 195.94 671.08 196.91Q669.69 197.88 667.60 197.88M664.53 189.24L664.53 189.91L670.67 189.91L670.67 189.24Q670.67 187.68 669.87 186.83Q669.06 185.98 667.60 185.98Q666.14 185.98 665.33 186.83Q664.53 187.68 664.53 189.24" fill="white" fill-opacity="0.7"/>
<path d="M681.23 197.88Q679.26 197.88 678.08 196.56Q676.89 195.24 676.89 192.98L676.89 189.12Q676.89 186.84 678.06 185.52Q679.24 184.20 681.23 184.20Q682.72 184.20 683.69 184.94Q684.66 185.69 684.86 186.96L684.88 186.96L684.83 183.96L684.83 180.12L686.99 180.12L686.99 197.64L684.83 197.64L684.83 195.12L684.81 195.12Q684.64 196.42 683.68 197.15Q682.72 197.88 681.23 197.88M681.95 196.01Q683.30 196.01 684.06 195.17Q684.83 194.33 684.83 192.84L684.83 189.24Q684.83 187.75 684.06 186.91Q683.30 186.07 681.95 186.07Q680.58 186.07 679.82 186.78Q679.05 187.49 679.05 189.12L679.05 192.96Q679.05 194.57 679.82 195.29Q680.58 196.01 681.95 196.01" fill="white" fill-opacity="0.7"/>
<path d="M716.80 197.64L712.72 197.64Q710.97 197.64 709.92 196.62Q708.88 195.60 708.88 193.92L708.88 182.09L704.32 182.09L704.32 180.12L711.04 180.12L711.04 193.92Q711.04 194.74 711.50 195.20Q711.95 195.67 712.72 195.67L716.80 195.67" fill="white" fill-opacity="0.7"/>
<path d="M731.32 197.64L720.04 197.64L720.04 195.67L724.72 195.67L724.72 186.41L720.52 186.41L720.52 184.44L726.88 184.44L726.88 195.67L731.32 195.67L731.32 197.64M725.56 182.06Q724.77 182.06 724.31 181.66Q723.86 181.25 723.86 180.55Q723.86 179.83 724.31 179.41Q724.77 178.99 725.56 178.99Q726.35 178.99 726.81 179.41Q727.26 179.83 727.26 180.55Q727.26 181.25 726.81 181.66Q726.35 182.06 725.56 182.06" fill="white" fill-opacity="0.7"/>
<path d="M744.59 201.96L742.43 201.96L742.43 198.12L742.48 195.12L742.41 195.12Q742.24 196.39 741.28 197.14Q740.32 197.88 738.83 197.88Q736.84 197.88 735.66 196.56Q734.49 195.24 734.49 192.96L734.49 189.10Q734.49 186.82 735.68 185.51Q736.86 184.20 738.83 184.20Q740.32 184.20 741.28 184.93Q742.24 185.66 742.41 186.96L742.43 186.96L742.43 184.44L744.59 184.44L744.59 201.96M739.55 196.01Q740.90 196.01 741.66 195.17Q742.43 194.33 742.43 192.84L742.43 189.24Q742.43 187.75 741.66 186.91Q740.90 186.07 739.55 186.07Q738.18 186.07 737.42 186.77Q736.65 187.46 736.65 189L736.65 193.08Q736.65 194.62 737.42 195.31Q738.18 196.01 739.55 196.01" fill="white" fill-opacity="0.7"/>
<path d="M753.98 197.88Q751.70 197.88 750.33 196.52Q748.96 195.17 748.96 192.84L748.96 184.44L751.12 184.44L751.12 192.84Q751.12 194.28 751.89 195.13Q752.66 195.98 753.98 195.98Q755.32 195.98 756.10 195.13Q756.88 194.28 756.88 192.84L756.88 184.44L759.04 184.44L759.04 192.84Q759.04 195.17 757.65 196.52Q756.26 197.88 753.98 197.88" fill="white" fill-opacity="0.7"/>
<path d="M774.52 197.64L763.24 197.64L763.24 195.67L767.92 195.67L767.92 186.41L763.72 186.41L763.72 184.44L770.08 184.44L770.08 195.67L774.52 195.67L774.52 197.64M768.76 182.06Q767.97 182.06 767.51 181.66Q767.06 181.25 767.06 180.55Q767.06 179.83 767.51 179.41Q767.97 178.99 768.76 178.99Q769.55 178.99 770.01 179.41Q770.46 179.83 770.46 180.55Q770.46 181.25 770.01 181.66Q769.55 182.06 768.76 182.06" fill="white" fill-opacity="0.7"/>
<path d="M782.03 197.88Q780.06 197.88 778.88 196.56Q777.69 195.24 777.69 192.98L777.69 189.12Q777.69 186.84 778.86 185.52Q780.04 184.20 782.03 184.20Q783.52 184.20 784.49 184.94Q785.46 185.69 785.66 186.96L785.68 186.96L785.63 183.96L785.63 180.12L787.79 180.12L787.79 197.64L785.63 197.64L785.63 195.12L785.61 195.12Q785.44 196.42 784.48 197.15Q783.52 197.88 782.03 197.88M782.75 196.01Q784.10 196.01 784.86 195.17Q785.63 194.33 785.63 192.84L785.63 189.24Q785.63 187.75 784.86 186.91Q784.10 186.07 782.75 186.07Q781.38 186.07 780.62 186.78Q779.85 187.49 779.85 189.12L779.85 192.96Q779.85 194.57 780.62 195.29Q781.38 196.01 782.75 196.01" fill="white" fill-opacity="0.7"/>
<path d="M803.32 197.64L792.04 197.64L792.04 195.67L796.72 195.67L796.72 186.41L792.52 186.41L792.52 184.44L798.88 184.44L798.88 195.67L803.32 195.67L803.32 197.64M797.56 182.06Q796.77 182.06 796.31 181.66Q795.86 181.25 795.86 180.55Q795.86 179.83 796.31 179.41Q796.77 178.99 797.56 178.99Q798.35 178.99 798.81 179.41Q799.26 179.83 799.26 180.55Q799.26 181.25 798.81 181.66Q798.35 182.06 797.56 182.06" fill="white" fill-opacity="0.7"/>
<path d="M816.76 197.64L812.92 197.64Q811.29 197.64 810.30 196.69Q809.32 195.74 809.32 194.16L809.32 186.41L805.53 186.41L805.53 184.44L809.32 184.44L809.32 180.72L811.48 180.72L811.48 184.44L816.88 184.44L816.88 186.41L811.48 186.41L811.48 194.16Q811.48 194.83 811.88 195.25Q812.27 195.67 812.92 195.67L816.76 195.67" fill="white" fill-opacity="0.7"/>
<path d="M825.33 201.96L823.07 201.96L825.02 196.82L820.10 184.44L822.42 184.44L825.54 192.60Q825.74 193.08 825.90 193.61Q826.07 194.14 826.14 194.52Q826.22 194.14 826.38 193.61Q826.55 193.08 826.72 192.60L829.62 184.44L831.90 184.44" fill="white" fill-opacity="0.7"/>
<path d="M853.65 197.88Q851.61 197.88 850.41 196.74Q849.21 195.60 849.21 193.75Q849.21 192.53 849.76 191.62Q850.31 190.70 851.30 190.19Q852.28 189.67 853.55 189.67L857.63 189.67L857.63 188.64Q857.63 186.07 854.82 186.07Q853.58 186.07 852.81 186.53Q852.04 186.98 851.99 187.80L849.83 187.80Q849.95 186.24 851.28 185.22Q852.62 184.20 854.82 184.20Q857.22 184.20 858.51 185.35Q859.79 186.50 859.79 188.57L859.79 197.64L857.66 197.64L857.66 195.24L857.61 195.24Q857.42 196.46 856.38 197.17Q855.35 197.88 853.65 197.88M854.18 196.06Q855.76 196.06 856.70 195.29Q857.63 194.52 857.63 193.20L857.63 191.35L853.79 191.35Q852.74 191.35 852.08 191.99Q851.42 192.62 851.42 193.68Q851.42 194.78 852.15 195.42Q852.88 196.06 854.18 196.06" fill="white" fill-opacity="0.7"/>
<path d="M866.37 197.64L864.21 197.64L864.21 184.44L866.37 184.44L866.37 186.96L866.39 186.96Q866.56 185.64 867.47 184.92Q868.38 184.20 869.90 184.20Q871.89 184.20 873.06 185.42Q874.24 186.65 874.24 188.76L874.24 197.64L872.08 197.64L872.08 189.14Q872.08 187.63 871.32 186.83Q870.57 186.02 869.27 186.02Q867.93 186.02 867.15 186.86Q866.37 187.70 866.37 189.24" fill="white" fill-opacity="0.7"/>
<path d="M882.83 197.88Q880.86 197.88 879.68 196.56Q878.49 195.24 878.49 192.98L878.49 189.12Q878.49 186.84 879.66 185.52Q880.84 184.20 882.83 184.20Q884.32 184.20 885.29 184.94Q886.26 185.69 886.46 186.96L886.48 186.96L886.43 183.96L886.43 180.12L888.59 180.12L888.59 197.64L886.43 197.64L886.43 195.12L886.41 195.12Q886.24 196.42 885.28 197.15Q884.32 197.88 882.83 197.88M883.55 196.01Q884.90 196.01 885.66 195.17Q886.43 194.33 886.43 192.84L886.43 189.24Q886.43 187.75 885.66 186.91Q884.90 186.07 883.55 186.07Q882.18 186.07 881.42 186.78Q880.65 187.49 880.65 189.12L880.65 192.96Q880.65 194.57 881.42 195.29Q882.18 196.01 883.55 196.01" fill="white" fill-opacity="0.7"/>
<path d="M912.59 197.88Q910.19 197.88 908.75 196.54Q907.31 195.19 907.31 192.84L907.31 189.24Q907.31 186.89 908.75 185.54Q910.19 184.20 912.59 184.20Q914.87 184.20 916.28 185.42Q917.68 186.65 917.75 188.76L915.59 188.76Q915.52 187.49 914.73 186.80Q913.94 186.12 912.59 186.12Q911.18 186.12 910.32 186.92Q909.47 187.73 909.47 189.22L909.47 192.84Q909.47 194.33 910.32 195.14Q911.18 195.96 912.59 195.96Q913.94 195.96 914.73 195.26Q915.52 194.57 915.59 193.32L917.75 193.32Q917.68 195.43 916.28 196.66Q914.87 197.88 912.59 197.88" fill="white" fill-opacity="0.7"/>
<path d="M926.78 197.88Q924.50 197.88 923.13 196.52Q921.76 195.17 921.76 192.84L921.76 184.44L923.92 184.44L923.92 192.84Q923.92 194.28 924.69 195.13Q925.46 195.98 926.78 195.98Q928.12 195.98 928.90 195.13Q929.68 194.28 929.68 192.84L929.68 184.44L931.84 184.44L931.84 192.84Q931.84 195.17 930.45 196.52Q929.06 197.88 926.78 197.88" fill="white" fill-opacity="0.7"/>
<path d="M941.73 197.83L940.67 197.83Q938.46 197.83 937.25 196.84Q936.04 195.84 936.04 194.02L938.20 194.02Q938.20 194.93 938.85 195.44Q939.50 195.96 940.67 195.96L941.73 195.96Q942.93 195.96 943.59 195.43Q944.25 194.90 944.25 193.94Q944.25 192.24 942.69 192.02L939.04 191.50Q937.70 191.30 936.95 190.38Q936.21 189.46 936.21 187.94Q936.21 186.22 937.40 185.23Q938.58 184.25 940.67 184.25L941.73 184.25Q943.65 184.25 944.86 185.20Q946.07 186.14 946.17 187.68L943.98 187.68Q943.94 186.98 943.32 186.53Q942.71 186.07 941.73 186.07L940.67 186.07Q939.57 186.07 938.94 186.58Q938.32 187.08 938.32 187.94Q938.32 189.34 939.59 189.53L943 190.01Q946.36 190.49 946.36 193.94Q946.36 195.79 945.15 196.81Q943.94 197.83 941.73 197.83" fill="white" fill-opacity="0.7"/>
<path d="M960.76 197.64L956.92 197.64Q955.29 197.64 954.30 196.69Q953.32 195.74 953.32 194.16L953.32 186.41L949.53 186.41L949.53 184.44L953.32 184.44L953.32 180.72L955.48 180.72L955.48 184.44L960.88 184.44L960.88 186.41L955.48 186.41L955.48 194.16Q955.48 194.83 955.88 195.25Q956.27 195.67 956.92 195.67L960.76 195.67" fill="white" fill-opacity="0.7"/>
<path d="M970 197.83Q967.62 197.83 966.22 196.44Q964.82 195.05 964.82 192.55L964.82 189.53Q964.82 187.01 966.21 185.63Q967.60 184.25 970 184.25Q972.40 184.25 973.79 185.63Q975.18 187.01 975.18 189.53L975.18 192.55Q975.18 195.05 973.78 196.44Q972.38 197.83 970 197.83M970 195.91Q971.42 195.91 972.22 195.12Q973.02 194.33 973.02 192.79L973.02 189.29Q973.02 187.75 972.22 186.96Q971.42 186.17 970 186.17Q968.61 186.17 967.79 186.96Q966.98 187.75 966.98 189.29L966.98 192.79Q966.98 194.33 967.79 195.12Q968.61 195.91 970 195.91" fill="white" fill-opacity="0.7"/>
<path d="M980.66 197.64L978.64 197.64L978.64 184.44L980.51 184.44L980.51 186.19L980.56 186.19Q980.68 185.30 981.27 184.75Q981.86 184.20 982.77 184.20Q983.63 184.20 984.23 184.70Q984.83 185.21 985.10 186.07L985.12 186.07Q985.29 185.21 985.88 184.70Q986.46 184.20 987.38 184.20Q988.65 184.20 989.40 185.15Q990.16 186.10 990.16 187.61L990.16 197.64L988.14 197.64L988.14 187.58Q988.14 186.79 987.76 186.32Q987.38 185.86 986.70 185.86Q986.06 185.86 985.67 186.31Q985.29 186.77 985.29 187.56L985.29 197.64L983.51 197.64L983.51 187.58Q983.51 186.79 983.13 186.32Q982.74 185.86 982.10 185.86Q981.42 185.86 981.04 186.31Q980.66 186.77 980.66 187.56" fill="white" fill-opacity="0.7"/>
<path d="M1012.53 201.96L1010.27 201.96L1012.22 196.82L1007.30 184.44L1009.62 184.44L1012.74 192.60Q1012.94 193.08 1013.10 193.61Q1013.27 194.14 1013.34 194.52Q1013.42 194.14 1013.58 193.61Q1013.75 193.08 1013.92 192.60L1016.82 184.44L1019.10 184.44" fill="white" fill-opacity="0.7"/>
<path d="M1033.72 197.64L1022.44 197.64L1022.44 195.67L1027.12 195.67L1027.12 186.41L1022.92 186.41L1022.92 184.44L1029.28 184.44L1029.28 195.67L1033.72 195.67L1033.72 197.64M1027.96 182.06Q1027.17 182.06 1026.71 181.66Q1026.26 181.25 1026.26 180.55Q1026.26 179.83 1026.71 179.41Q1027.17 178.99 1027.96 178.99Q1028.75 178.99 1029.21 179.41Q1029.66 179.83 1029.66 180.55Q1029.66 181.25 1029.21 181.66Q1028.75 182.06 1027.96 182.06" fill="white" fill-opacity="0.7"/>
<path d="M1042 197.88Q1039.67 197.88 1038.24 196.48Q1036.82 195.07 1036.82 192.60L1036.82 189.48Q1036.82 187.01 1038.24 185.60Q1039.67 184.20 1042 184.20Q1043.56 184.20 1044.72 184.82Q1045.89 185.45 1046.54 186.58Q1047.18 187.70 1047.18 189.24L1047.18 191.59L1038.93 191.59L1038.93 192.84Q1038.93 194.30 1039.77 195.16Q1040.61 196.01 1042 196.01Q1043.20 196.01 1043.98 195.54Q1044.76 195.07 1044.93 194.28L1047.09 194.28Q1046.87 195.94 1045.48 196.91Q1044.09 197.88 1042 197.88M1038.93 189.24L1038.93 189.91L1045.07 189.91L1045.07 189.24Q1045.07 187.68 1044.27 186.83Q1043.46 185.98 1042 185.98Q1040.54 185.98 1039.73 186.83Q1038.93 187.68 1038.93 189.24" fill="white" fill-opacity="0.7"/>
<path d="M1062.40 197.64L1058.32 197.64Q1056.57 197.64 1055.52 196.62Q1054.48 195.60 1054.48 193.92L1054.48 182.09L1049.92 182.09L1049.92 180.12L1056.64 180.12L1056.64 193.92Q1056.64 194.74 1057.10 195.20Q1057.55 195.67 1058.32 195.67L1062.40 195.67" fill="white" fill-opacity="0.7"/>
<path d="M1070.03 197.88Q1068.06 197.88 1066.88 196.56Q1065.69 195.24 1065.69 192.98L1065.69 189.12Q1065.69 186.84 1066.86 185.52Q1068.04 184.20 1070.03 184.20Q1071.52 184.20 1072.49 184.94Q1073.46 185.69 1073.66 186.96L1073.68 186.96L1073.63 183.96L1073.63 180.12L1075.79 180.12L1075.79 197.64L1073.63 197.64L1073.63 195.12L1073.61 195.12Q1073.44 196.42 1072.48 197.15Q1071.52 197.88 1070.03 197.88M1070.75 196.01Q1072.10 196.01 1072.86 195.17Q1073.63 194.33 1073.63 192.84L1073.63 189.24Q1073.63 187.75 1072.86 186.91Q1072.10 186.07 1070.75 186.07Q1069.38 186.07 1068.62 186.78Q1067.85 187.49 1067.85 189.12L1067.85 192.96Q1067.85 194.57 1068.62 195.29Q1069.38 196.01 1070.75 196.01" fill="white" fill-opacity="0.7"/>
<path d="M77.73 229.83L76.67 229.83Q74.46 229.83 73.25 228.84Q72.04 227.84 72.04 226.02L74.20 226.02Q74.20 226.93 74.85 227.44Q75.50 227.96 76.67 227.96L77.73 227.96Q78.93 227.96 79.59 227.43Q80.25 226.90 80.25 225.94Q80.25 224.24 78.69 224.02L75.04 223.50Q73.70 223.30 72.95 222.38Q72.21 221.46 72.21 219.94Q72.21 218.22 73.40 217.23Q74.58 216.25 76.67 216.25L77.73 216.25Q79.65 216.25 80.86 217.20Q82.07 218.14 82.17 219.68L79.98 219.68Q79.94 218.98 79.32 218.53Q78.71 218.07 77.73 218.07L76.67 218.07Q75.57 218.07 74.94 218.58Q74.32 219.08 74.32 219.94Q74.32 221.34 75.59 221.53L79 222.01Q82.36 222.49 82.36 225.94Q82.36 227.79 81.15 228.81Q79.94 229.83 77.73 229.83" fill="white" fill-opacity="0.7"/>
<path d="M96.76 229.64L92.92 229.64Q91.29 229.64 90.30 228.69Q89.32 227.74 89.32 226.16L89.32 218.41L85.53 218.41L85.53 216.44L89.32 216.44L89.32 212.72L91.48 212.72L91.48 216.44L96.88 216.44L96.88 218.41L91.48 218.41L91.48 226.16Q91.48 226.83 91.88 227.25Q92.27 227.67 92.92 227.67L96.76 227.67" fill="white" fill-opacity="0.7"/>
<path d="M103.65 229.64L101.49 229.64L101.49 216.44L103.65 216.44L103.65 218.96L103.70 218.96Q103.86 217.69 104.78 216.94Q105.69 216.20 107.22 216.20Q109.29 216.20 110.40 217.44Q111.52 218.67 111.52 220.95L111.52 222.08L109.36 222.08L109.36 220.95Q109.36 218.07 106.55 218.07Q105.14 218.07 104.39 218.89Q103.65 219.70 103.65 221.24" fill="white" fill-opacity="0.7"/>
<path d="M119.25 229.88Q117.21 229.88 116.01 228.74Q114.81 227.60 114.81 225.75Q114.81 224.53 115.36 223.62Q115.91 222.70 116.90 222.19Q117.88 221.67 119.15 221.67L123.23 221.67L123.23 220.64Q123.23 218.07 120.42 218.07Q119.18 218.07 118.41 218.53Q117.64 218.98 117.59 219.80L115.43 219.80Q115.55 218.24 116.88 217.22Q118.22 216.20 120.42 216.20Q122.82 216.20 124.11 217.35Q125.39 218.50 125.39 220.57L125.39 229.64L123.26 229.64L123.26 227.24L123.21 227.24Q123.02 228.46 121.98 229.17Q120.95 229.88 119.25 229.88M119.78 228.06Q121.36 228.06 122.30 227.29Q123.23 226.52 123.23 225.20L123.23 223.35L119.39 223.35Q118.34 223.35 117.68 223.99Q117.02 224.62 117.02 225.68Q117.02 226.78 117.75 227.42Q118.48 228.06 119.78 228.06" fill="white" fill-opacity="0.7"/>
<path d="M139.96 229.64L136.12 229.64Q134.49 229.64 133.50 228.69Q132.52 227.74 132.52 226.16L132.52 218.41L128.73 218.41L128.73 216.44L132.52 216.44L132.52 212.72L134.68 212.72L134.68 216.44L140.08 216.44L140.08 218.41L134.68 218.41L134.68 226.16Q134.68 226.83 135.08 227.25Q135.47 227.67 136.12 227.67L139.96 227.67" fill="white" fill-opacity="0.7"/>
<path d="M149.20 229.88Q146.87 229.88 145.44 228.48Q144.02 227.07 144.02 224.60L144.02 221.48Q144.02 219.01 145.44 217.60Q146.87 216.20 149.20 216.20Q150.76 216.20 151.92 216.82Q153.09 217.45 153.74 218.58Q154.38 219.70 154.38 221.24L154.38 223.59L146.13 223.59L146.13 224.84Q146.13 226.30 146.97 227.16Q147.81 228.01 149.20 228.01Q150.40 228.01 151.18 227.54Q151.96 227.07 152.13 226.28L154.29 226.28Q154.07 227.94 152.68 228.91Q151.29 229.88 149.20 229.88M146.13 221.24L146.13 221.91L152.27 221.91L152.27 221.24Q152.27 219.68 151.47 218.83Q150.66 217.98 149.20 217.98Q147.74 217.98 146.93 218.83Q146.13 219.68 146.13 221.24" fill="white" fill-opacity="0.7"/>
<path d="M163.96 233.96L160.26 233.96L160.26 231.99L163.98 231.99Q165.11 231.99 165.76 231.36Q166.41 230.72 166.41 229.64L166.41 228.44L166.46 226.28L166.38 226.28Q166.19 227.46 165.26 228.09Q164.32 228.73 162.90 228.73Q160.86 228.73 159.69 227.43Q158.51 226.14 158.51 223.88L158.51 221.10Q158.51 218.84 159.69 217.52Q160.86 216.20 162.90 216.20Q164.32 216.20 165.26 216.87Q166.19 217.54 166.38 218.72L166.43 218.72L166.43 216.44L168.57 216.44L168.57 229.64Q168.57 231.63 167.33 232.80Q166.10 233.96 163.96 233.96M163.55 226.93Q164.90 226.93 165.66 226.09Q166.43 225.25 166.43 223.76L166.43 221.24Q166.43 219.75 165.66 218.91Q164.90 218.07 163.55 218.07Q162.18 218.07 161.43 218.86Q160.67 219.66 160.67 221L160.67 224Q160.67 225.34 161.43 226.14Q162.18 226.93 163.55 226.93" fill="white" fill-opacity="0.7"/>
<path d="M184.12 229.64L172.84 229.64L172.84 227.67L177.52 227.67L177.52 218.41L173.32 218.41L173.32 216.44L179.68 216.44L179.68 227.67L184.12 227.67L184.12 229.64M178.36 214.06Q177.57 214.06 177.11 213.66Q176.66 213.25 176.66 212.55Q176.66 211.83 177.11 211.41Q177.57 210.99 178.36 210.99Q179.15 210.99 179.61 211.41Q180.06 211.83 180.06 212.55Q180.06 213.25 179.61 213.66Q179.15 214.06 178.36 214.06" fill="white" fill-opacity="0.7"/>
<path d="M192.40 229.88Q190.07 229.88 188.64 228.48Q187.22 227.07 187.22 224.60L187.22 221.48Q187.22 219.01 188.64 217.60Q190.07 216.20 192.40 216.20Q193.96 216.20 195.12 216.82Q196.29 217.45 196.94 218.58Q197.58 219.70 197.58 221.24L197.58 223.59L189.33 223.59L189.33 224.84Q189.33 226.30 190.17 227.16Q191.01 228.01 192.40 228.01Q193.60 228.01 194.38 227.54Q195.16 227.07 195.33 226.28L197.49 226.28Q197.27 227.94 195.88 228.91Q194.49 229.88 192.40 229.88M189.33 221.24L189.33 221.91L195.47 221.91L195.47 221.24Q195.47 219.68 194.67 218.83Q193.86 217.98 192.40 217.98Q190.94 217.98 190.13 218.83Q189.33 219.68 189.33 221.24" fill="white" fill-opacity="0.7"/>
<path d="M207.33 229.83L206.27 229.83Q204.06 229.83 202.85 228.84Q201.64 227.84 201.64 226.02L203.80 226.02Q203.80 226.93 204.45 227.44Q205.10 227.96 206.27 227.96L207.33 227.96Q208.53 227.96 209.19 227.43Q209.85 226.90 209.85 225.94Q209.85 224.24 208.29 224.02L204.64 223.50Q203.30 223.30 202.55 222.38Q201.81 221.46 201.81 219.94Q201.81 218.22 203 217.23Q204.18 216.25 206.27 216.25L207.33 216.25Q209.25 216.25 210.46 217.20Q211.67 218.14 211.77 219.68L209.58 219.68Q209.54 218.98 208.92 218.53Q208.31 218.07 207.33 218.07L206.27 218.07Q205.17 218.07 204.54 218.58Q203.92 219.08 203.92 219.94Q203.92 221.34 205.19 221.53L208.60 222.01Q211.96 222.49 211.96 225.94Q211.96 227.79 210.75 228.81Q209.54 229.83 207.33 229.83" fill="white" fill-opacity="0.7"/>
<path d="M221.20 229.88Q220.31 229.88 219.77 229.35Q219.23 228.82 219.23 227.98Q219.23 227.10 219.77 226.54Q220.31 225.99 221.20 225.99Q222.09 225.99 222.63 226.54Q223.17 227.10 223.17 227.98Q223.17 228.82 222.63 229.35Q222.09 229.88 221.20 229.88" fill="white" fill-opacity="0.7"/>
<path d="M91.57 137.02Q81.87 137.02 76.16 131.60Q70.45 126.17 70.45 116.67L70.45 85.28Q70.45 75.87 76.16 70.44Q81.87 65.02 91.57 65.02Q101.17 65.02 106.88 70.49Q112.59 75.96 112.59 85.28L103.09 85.28Q103.09 79.61 100.02 76.54Q96.94 73.47 91.57 73.47Q86.10 73.47 83.02 76.54Q79.95 79.61 79.95 85.28L79.95 116.67Q79.95 122.43 83.02 125.50Q86.10 128.57 91.57 128.57Q96.94 128.57 100.02 125.50Q103.09 122.43 103.09 116.67L112.59 116.67Q112.59 126.08 106.88 131.55Q101.17 137.02 91.57 137.02M133.71 136.06L124.02 136.06L142.16 65.98L154.74 65.98L172.78 136.06L163.09 136.06L158.67 117.82L138.13 117.82L133.71 136.06M145.14 88.92L140.05 109.95L156.75 109.95L151.76 89.02Q150.32 83.26 149.46 79.23Q148.59 75.20 148.40 73.76Q148.21 75.20 147.34 79.23Q146.48 83.26 145.14 88.92M192.75 136.06L183.73 136.06L183.73 65.98L197.17 65.98L205.81 96.22L214.83 65.98L228.37 65.98L228.37 136.06L219.25 136.06L219.25 103.90Q219.25 98.81 219.44 92.62Q219.63 86.43 219.97 80.24Q220.30 74.04 220.69 69.05L209.74 104.96L201.68 104.96L191.12 69.92Q191.98 76.92 192.37 85.52Q192.75 94.11 192.75 103.90L192.75 136.06M284.91 136.06L244.11 136.06L244.11 65.98L284.91 65.98L284.91 74.52L253.52 74.52L253.52 95.36L281.55 95.36L281.55 103.61L253.52 103.61L253.52 127.52L284.91 127.52L284.91 136.06M345.39 136.06L304.69 136.06L304.69 65.98L314.19 65.98L314.19 127.42L345.39 127.42L345.39 136.06M378.80 137.02Q369.20 137.02 363.63 131.45Q358.06 125.88 358.06 115.71L358.06 86.24Q358.06 76.16 363.63 70.59Q369.20 65.02 378.80 65.02Q388.40 65.02 393.97 70.54Q399.54 76.06 399.54 86.24L399.54 115.71Q399.54 125.88 393.97 131.45Q388.40 137.02 378.80 137.02M378.80 128.57Q384.18 128.57 387.10 125.50Q390.03 122.43 390.03 116.67L390.03 85.28Q390.03 79.61 387.15 76.54Q384.27 73.47 378.80 73.47Q373.33 73.47 370.45 76.54Q367.57 79.61 367.57 85.28L367.57 116.67Q367.57 122.43 370.50 125.50Q373.42 128.57 378.80 128.57M441.20 136.06L431.70 136.06L431.70 74.62L412.69 74.62L412.69 65.98L460.11 65.98L460.11 74.62L441.20 74.62L441.20 136.06M550.06 136.06L531.25 136.06L531.25 65.98L550.06 65.98Q556.88 65.98 561.92 68.62Q566.96 71.26 569.74 76.01Q572.53 80.76 572.53 87.20L572.53 114.75Q572.53 121.18 569.74 125.98Q566.96 130.78 561.92 133.42Q556.88 136.06 550.06 136.06M540.75 74.43L540.75 127.61L550.06 127.61Q556.11 127.61 559.57 124.16Q563.02 120.70 563.02 114.75L563.02 87.20Q563.02 81.24 559.57 77.84Q556.11 74.43 550.06 74.43L540.75 74.43M630.51 136.06L589.71 136.06L589.71 65.98L630.51 65.98L630.51 74.52L599.12 74.52L599.12 95.36L627.15 95.36L627.15 103.61L599.12 103.61L599.12 127.52L630.51 127.52L630.51 136.06M652.02 136.06L641.55 136.06L661.52 100.44L642.61 65.98L653.46 65.98L663.82 85.95Q664.69 87.68 665.60 89.50Q666.51 91.32 666.99 92.28Q667.47 91.32 668.34 89.50Q669.20 87.68 670.06 85.95L680.53 65.98L690.99 65.98L672.08 99.96L692.05 136.06L681.30 136.06L669.78 114.56Q668.91 112.83 668.05 110.96Q667.18 109.08 666.70 107.93Q666.22 109.08 665.36 110.96Q664.50 112.83 663.54 114.46" fill="url(#paint2_linear_0_1)"/>
<g id="Group 1">
<rect id="Rectangle 1" x="26" y="168" width="12" height="184" rx="5" fill="url(#paint3_linear_0_1)" fill-opacity="0.9"/>
</g>
<g id="Group 1_2">
<rect id="Rectangle 2" x="26" y="38" width="12" height="119" rx="5" fill="url(#paint4_linear_0_1)" fill-opacity="0.9"/>
</g>
<ellipse id="Ellipse 1" cx="148.5" cy="573" rx="215.5" ry="214" fill="url(#paint5_linear_0_1)" fill-opacity="0.4"/>
<rect id="Rectangle 3" x="1229" y="48" width="300" height="300" rx="25" fill="#FFFBFB" fill-opacity="0.9"/>
<g id="placeholder-logo"><g transform="translate(1229,48) translate(50.8,0.0) scale(0.6911)"><defs id="defs128">
    <style id="style126">
      .cls-1 { fill: #fff3d4; }
      .cls-1, .cls-2 { stroke-width: 0px; }
      .cls-2 { fill: #f58b00; }</style>
  </defs>
  <path class="cls-2" d="m 286.948,176.02 c -34.57,-19.26 -73.42,-31.77 -114.76,-35.75 v 80.96 l -28.69,12.33 -28.69,-12.33 V 199.4 c 0,0 0,-16.94 0,-16.94 v -42.19 c -41.34,3.99 -80.18,16.5 -114.76000028,35.75 0,0 -6.86000002,189.1 143.44000028,258.09 0,0 0.01,0 0.02,0 150.3,-68.98 143.44,-258.09 143.44,-258.09 z m -88.55,90.27 -31.17,13.39 -21.92,9.42 25.76,0.26 c 0.61,0 1.05,70.9 0.92,71.08 l -28.5,42.63 c 0,0 0,0 0,0 l -28.69,-42.91 c 0,0 0.5,-71.35 1.11,-71.35 l 25.67,0.26 -21.83,-9.38 -31.17,-13.39 -31.17,-13.39 31.17,-13.39 54.46,23.4 c 0.28,0.12 0.6,0.12 0.87,0 l 54.46,-23.4 31.17,13.39 -31.17,13.39 z" id="path130" />
  <path class="cls-1" d="m 229.568,279.68 -31.17,-13.39 -54.46,23.4 c -0.28,0.12 -0.6,0.12 -0.87,0 l -54.46,-23.4 -31.17,13.39 31.17,13.39 31.17,13.39 23.73,10.2 23.73,-10.2 31.17,-13.39 31.17,-13.39 z" id="path132" />
  <path class="cls-1" d="m 229.568,226.03 c 0,0 -31.88,-13.7 -57.38,-24.65 v 19.84 l -28.69,12.33 -28.69,-12.33 c 0,0 0,0 0,0 v -19.84 l -55.01,23.64 c -0.89,0.38 -0.89,1.65 0,2.04 l 28.8,12.37 54.46,23.4 c 0.28,0.12 0.6,0.12 0.87,0 l 54.46,-23.4 31.17,-13.39 z" id="path134" />
  <path class="cls-1" d="m 241.418,108.73 c -25.22,-7.58 -51.67,-12.32 -78.97,-13.85 l -6.52,-58.79 c -0.16,-1.48 0.31,-2.96 1.31,-4.06 3.12,-3.4 5.02,-7.93 5.02,-12.91 0,-10.56 -8.56,-19.12 -19.12,-19.12 -0.01,0 -0.02,0 -0.03,0 -0.02,0 -0.04,0 -0.07,0 -10.56,0 -19.12,8.56 -19.12,19.12 0,4.98 1.9,9.51 5.02,12.91 1.01,1.1 1.48,2.58 1.31,4.06 l -6.52,58.79 c -27.31,1.53 -53.75,6.26 -78.97,13.85 l 11.99,27.26 0.85,-0.27 c 26.94,-7.88 56.2,-11.81 85.47,-11.81 v 0 c 29.28,0 58.56,3.93 85.51,11.81 l 0.87,0.21 z" id="path136" /></g></g>
</g>
<defs>
<linearGradient id="paint0_linear_0_1" x1="0" y1="198" x2="1584" y2="198" gradientUnits="userSpaceOnUse">
<stop stop-color="#3D052C"/>
<stop offset="1"/>
</linearGradient>
<linearGradient id="paint1_linear_0_1" x1="323" y1="-224" x2="323" y2="352" gradientUnits="userSpaceOnUse">
<stop stop-color="#28F6F2" stop-opacity="0.4"/>
<stop offset="1" stop-color="#17908E" stop-opacity="0.7"/>
</linearGradient>
<linearGradient id="paint2_linear_0_1" x1="148.5" y1="38" x2="148.5" y2="140" gradientUnits="userSpaceOnUse">
<stop stop-color="white"/>
<stop offset="1" stop-color="#999999"/>
</linearGradient>
<linearGradient id="paint3_linear_0_1" x1="38" y1="260" x2="26" y2="260" gradientUnits="userSpaceOnUse">
<stop stop-color="#D9D9D9"/>
<stop offset="1" stop-color="#737373"/>
</linearGradient>
<linearGradient id="paint4_linear_0_1" x1="38" y1="97.5" x2="26" y2="97.5" gradientUnits="userSpaceOnUse">
<stop stop-color="#D9D9D9"/>
<stop offset="1" stop-color="#737373"/>
</linearGradient>
<linearGradient id="paint5_linear_0_1" x1="27.5" y1="434.5" x2="148.5" y2="787" gradientUnits="userSpaceOnUse">
<stop stop-color="#2E21BC"/>
<stop offset="1" stop-color="#150F56"/>
</linearGradient>
<clipPath id="clip0_0_1">
<rect width="1584" height="396" fill="white"/>
</clipPath>
</defs>
</svg>
